<svg width="32" height="32" viewBox="0 0 32 32" fill="none" xmlns="http://www.w3.org/2000/svg">
<path d="M16 17.814C17 17.814 17.8108 16.9931 17.8108 15.9868C17.8108 14.9804 17 14.1595 16 14.1595C15 14.1595 14.1892 14.9804 14.1892 15.9868C14.1892 16.9931 15 17.814 16 17.814ZM16 20.727C13.3513 20.727 11.2162 18.6085 11.2162 15.9868C11.2162 13.3915 13.3784 11.273 16 11.273C18.6486 11.273 20.7838 13.3915 20.7838 16.0132C20.8108 18.6085 18.6486 20.727 16 20.727Z" fill="#1EAAE2"/>
<path d="M4.78379 17.814C5.78379 17.814 6.59461 16.9931 6.59461 15.9868C6.59461 14.9804 5.78379 14.1595 4.78379 14.1595C3.78379 14.1595 2.97298 14.9804 2.97298 15.9868C2.97298 16.9931 3.78379 17.814 4.78379 17.814ZM4.78379 20.727C2.13514 20.727 0 18.6085 0 15.9868C0 13.3915 2.16217 11.273 4.78379 11.273C7.43244 11.273 9.56758 13.3915 9.56758 16.0132C9.59461 18.6085 7.43244 20.727 4.78379 20.727Z" fill="#6EC8C2"/>
<path d="M27.216 17.814C28.216 17.814 29.0269 16.9931 29.0269 15.9868C29.0269 14.9804 28.216 14.1595 27.216 14.1595C26.216 14.1595 25.4052 14.9804 25.4052 15.9868C25.4052 16.9931 26.216 17.814 27.216 17.814ZM27.216 20.727C24.5674 20.727 22.4323 18.6085 22.4323 15.9868C22.4323 13.3915 24.5944 11.273 27.216 11.273C29.8647 11.273 31.9998 13.3915 31.9998 16.0132C32.0269 18.6085 29.8647 20.727 27.216 20.727Z" fill="#0373B7"/>
</svg>
