<svg width="16" height="16" viewBox="0 0 16 16" fill="none" xmlns="http://www.w3.org/2000/svg">
<path fill-rule="evenodd" clip-rule="evenodd" d="M8 1C8.13261 1 8.25979 1.05268 8.35355 1.14645C8.44732 1.24021 8.5 1.36739 8.5 1.5V7.5H14.5C14.6326 7.5 14.7598 7.55268 14.8536 7.64645C14.9473 7.74021 15 7.86739 15 8C15 8.13261 14.9473 8.25979 14.8536 8.35355C14.7598 8.44732 14.6326 8.5 14.5 8.5H8.5V14.5C8.5 14.6326 8.44732 14.7598 8.35355 14.8536C8.25979 14.9473 8.13261 15 8 15C7.86739 15 7.74021 14.9473 7.64645 14.8536C7.55268 14.7598 7.5 14.6326 7.5 14.5V8.5H1.5C1.36739 8.5 1.24021 8.44732 1.14645 8.35355C1.05268 8.25979 1 8.13261 1 8C1 7.86739 1.05268 7.74021 1.14645 7.64645C1.24021 7.55268 1.36739 7.5 1.5 7.5H7.5V1.5C7.5 1.36739 7.55268 1.24021 7.64645 1.14645C7.74021 1.05268 7.86739 1 8 1Z" fill="currentColor"/>
</svg>
