<svg width="16" height="16" viewBox="0 0 16 16" fill="none" xmlns="http://www.w3.org/2000/svg">
<path d="M8 14.75C4.14453 14.75 1 11.6055 1 7.75C1 3.89453 4.14453 0.75 8 0.75C11.8555 0.75 15 3.89453 15 7.75C15 11.6055 11.8555 14.75 8 14.75ZM8 2.0625C4.85547 2.0625 2.3125 4.60547 2.3125 7.75C2.3125 10.8945 4.85547 13.4375 8 13.4375C11.1445 13.4375 13.6875 10.8945 13.6875 7.75C13.6875 4.60547 11.1445 2.0625 8 2.0625ZM9.94141 5.39844C10.1602 5.09766 10.5703 5.04297 10.8438 5.26172C11.1445 5.45312 11.1992 5.86328 11.0078 6.16406L7.64453 10.7578C7.53516 10.9219 7.37109 11.0039 7.17969 11.0312C6.98828 11.0312 6.79688 10.9766 6.66016 10.8398L5.12891 9.30859C4.88281 9.0625 4.88281 8.65234 5.12891 8.37891C5.40234 8.13281 5.8125 8.13281 6.05859 8.37891L7.04297 9.36328L9.94141 5.39844Z" fill="white"/>
<path d="M8 14.75C4.14453 14.75 1 11.6055 1 7.75C1 3.89453 4.14453 0.75 8 0.75C11.8555 0.75 15 3.89453 15 7.75C15 11.6055 11.8555 14.75 8 14.75ZM8 2.0625C4.85547 2.0625 2.3125 4.60547 2.3125 7.75C2.3125 10.8945 4.85547 13.4375 8 13.4375C11.1445 13.4375 13.6875 10.8945 13.6875 7.75C13.6875 4.60547 11.1445 2.0625 8 2.0625ZM9.94141 5.39844C10.1602 5.09766 10.5703 5.04297 10.8438 5.26172C11.1445 5.45312 11.1992 5.86328 11.0078 6.16406L7.64453 10.7578C7.53516 10.9219 7.37109 11.0039 7.17969 11.0312C6.98828 11.0312 6.79688 10.9766 6.66016 10.8398L5.12891 9.30859C4.88281 9.0625 4.88281 8.65234 5.12891 8.37891C5.40234 8.13281 5.8125 8.13281 6.05859 8.37891L7.04297 9.36328L9.94141 5.39844Z" fill="#22C45D"/>
</svg>
