<svg width="24" height="24" viewBox="0 0 24 24" fill="none" xmlns="http://www.w3.org/2000/svg">
<path d="M4.6875 12.25C4.6875 16.293 7.95703 19.5625 12 19.5625C13.1602 19.5625 14.2852 19.2812 15.2695 18.7891C11.6133 17.9805 8.90625 14.7461 8.90625 10.8438C8.90625 8.52344 9.85547 6.44922 11.4023 4.97266C7.64062 5.25391 4.6875 8.41797 4.6875 12.25ZM12 3.25C12.668 3.25 13.3359 3.32031 14.0039 3.46094C14.3555 3.56641 14.6016 3.84766 14.6367 4.19922C14.6719 4.55078 14.4961 4.90234 14.1797 5.04297C12.0703 6.09766 10.5938 8.3125 10.5938 10.8438C10.5938 14.4297 13.4766 17.3125 17.0625 17.3125C17.2383 17.3125 17.4141 17.3125 17.5898 17.2773C17.9414 17.2773 18.293 17.4531 18.4336 17.8047C18.5742 18.1211 18.5039 18.5078 18.2227 18.7539C16.6055 20.3008 14.4258 21.25 12 21.25C7.04297 21.25 3 17.207 3 12.25C3 7.29297 7.04297 3.25 12 3.25ZM16.043 11.582L14.0039 10.9844C13.8281 10.9492 13.6875 10.7734 13.6875 10.5625C13.6875 10.3516 13.8281 10.1758 14.0039 10.1406L16.043 9.54297L16.6406 7.50391C16.6758 7.32812 16.8516 7.1875 17.0625 7.1875C17.2734 7.1875 17.4492 7.32812 17.4844 7.50391L18.082 9.54297L20.1211 10.1406C20.2969 10.1758 20.4375 10.3516 20.4375 10.5625C20.4375 10.7734 20.2969 10.9492 20.1211 10.9844L18.082 11.582L17.4844 13.6211C17.4492 13.7969 17.2734 13.9375 17.0625 13.9375C16.8516 13.9375 16.6758 13.7969 16.6406 13.6211L16.043 11.582Z" fill="#B4B4B4"/>
</svg>
