<svg width="24" height="24" viewBox="0 0 24 24" fill="none" xmlns="http://www.w3.org/2000/svg">
<path d="M19.3125 12.25C19.3125 8.20703 16.043 4.9375 12 4.9375C7.95703 4.9375 4.6875 8.20703 4.6875 12.25C4.6875 16.293 7.95703 19.5625 12 19.5625C16.043 19.5625 19.3125 16.293 19.3125 12.25ZM3 12.25C3 7.29297 7.04297 3.25 12 3.25C16.957 3.25 21 7.29297 21 12.25C21 17.207 16.957 21.25 12 21.25C7.04297 21.25 3 17.207 3 12.25ZM12 9.4375C11.3672 9.4375 10.875 9.92969 10.875 10.5625C10.875 11.0195 10.4883 11.4062 10.0312 11.4062C9.57422 11.4062 9.1875 11.0195 9.1875 10.5625C9.1875 9.01562 10.4531 7.75 12 7.75C13.5469 7.75 14.8125 9.01562 14.8125 10.5625C14.8125 12.2148 13.5469 12.918 12.8438 13.1992V13.3047C12.8438 13.7969 12.457 14.1484 12 14.1484C11.543 14.1484 11.1562 13.7969 11.1562 13.3047V13.0234C11.1562 12.3203 11.6836 11.793 12.2109 11.6172C12.457 11.5469 12.668 11.4414 12.8438 11.2656C13.0195 11.125 13.125 10.9141 13.125 10.5625C13.125 9.92969 12.6328 9.4375 12 9.4375ZM10.875 16.1875C10.875 15.5547 11.3672 15.0625 12 15.0625C12.6328 15.0625 13.125 15.5547 13.125 16.1875C13.125 16.8203 12.6328 17.3125 12 17.3125C11.3672 17.3125 10.875 16.8203 10.875 16.1875Z" fill="#B4B4B4"/>
</svg>
