<svg width="24" height="24" viewBox="0 0 24 24" fill="none" xmlns="http://www.w3.org/2000/svg">
<path d="M8.48438 6.0625H5.8125V8.73438L8.48438 6.0625ZM4.125 10V5.5C4.125 4.86719 4.61719 4.375 5.25 4.375H9.75C10.3828 4.375 10.875 4.86719 10.875 5.5V5.60547C10.875 5.88672 10.7695 6.16797 10.5586 6.37891L8.94141 7.99609L12 11.0547L15.0586 7.99609L13.4414 6.37891C13.2305 6.16797 13.125 5.88672 13.125 5.60547V5.5C13.125 4.86719 13.6172 4.375 14.25 4.375H18.75C19.3828 4.375 19.875 4.86719 19.875 5.5V10C19.875 10.6328 19.3828 11.125 18.75 11.125H18.6445C18.3633 11.125 18.082 11.0195 17.8711 10.8086L16.2539 9.19141L13.1953 12.25L16.2539 15.3086L17.8711 13.6914C18.082 13.4805 18.3633 13.375 18.6445 13.375H18.75C19.3828 13.375 19.875 13.8672 19.875 14.5V19C19.875 19.6328 19.3828 20.125 18.75 20.125H14.25C13.6172 20.125 13.125 19.6328 13.125 19V18.8945C13.125 18.6133 13.2305 18.332 13.4414 18.1211L15.0586 16.5039L12 13.4453L8.94141 16.5039L10.5586 18.1211C10.7695 18.332 10.875 18.6133 10.875 18.8945V19C10.875 19.6328 10.3828 20.125 9.75 20.125H5.25C4.61719 20.125 4.125 19.6328 4.125 19V14.5C4.125 13.8672 4.61719 13.375 5.25 13.375H5.35547C5.63672 13.375 5.91797 13.4805 6.12891 13.6914L7.74609 15.3086L10.8047 12.25L7.74609 9.19141L6.12891 10.8086C5.91797 11.0195 5.63672 11.125 5.35547 11.125H5.25C4.61719 11.125 4.125 10.6328 4.125 10ZM15.5156 18.4375H18.1875V15.7656L15.5156 18.4375ZM5.8125 15.7656V18.4375H8.48438L5.8125 15.7656ZM15.5156 6.0625L18.1875 8.73438V6.0625H15.5156Z" fill="#B4B4B4"/>
</svg>
