<svg width="24" height="24" viewBox="0 0 24 24" fill="none" xmlns="http://www.w3.org/2000/svg">
<path d="M4.6875 7.01172C6.30469 4.72656 8.97656 3.25 12 3.25C16.957 3.25 21 7.29297 21 12.25C21 17.207 16.957 21.25 12 21.25C10.1719 21.25 8.44922 20.6875 7.04297 19.7734C6.65625 19.4922 6.55078 18.9648 6.79688 18.5781C7.04297 18.1914 7.57031 18.0859 7.95703 18.3672C9.11719 19.1055 10.5234 19.5625 12 19.5625C16.043 19.5625 19.3125 16.293 19.3125 12.25C19.3125 8.20703 16.043 4.9375 12 4.9375C9.39844 4.9375 7.14844 6.27344 5.84766 8.3125H7.78125C8.23828 8.3125 8.625 8.69922 8.625 9.15625C8.625 9.61328 8.23828 10 7.78125 10H3.84375C3.38672 10 3 9.61328 3 9.15625V5.21875C3 4.76172 3.38672 4.375 3.84375 4.375C4.30078 4.375 4.6875 4.76172 4.6875 5.21875V7.01172ZM12 7.75C12.457 7.75 12.8438 8.13672 12.8438 8.59375V11.8984L15.1289 14.1836C15.4453 14.5 15.4453 15.0625 15.1289 15.3789C14.8125 15.6953 14.25 15.6953 13.9336 15.3789L11.4023 12.8477C11.2617 12.707 11.1562 12.4609 11.1562 12.25V8.59375C11.1562 8.13672 11.543 7.75 12 7.75Z" fill="currentColor"/>
</svg>
