<svg width="24" height="24" viewBox="0 0 24 24" fill="none" xmlns="http://www.w3.org/2000/svg">
<path d="M3 7.75C3 6.51953 4.01953 5.5 5.25 5.5H18.75C19.9805 5.5 21 6.51953 21 7.75V16.75C21 17.9805 19.9805 19 18.75 19H5.25C4.01953 19 3 17.9805 3 16.75V7.75ZM9.1875 11.6875C9.1875 11.2305 8.80078 10.8438 8.34375 10.8438H5.53125C5.07422 10.8438 4.6875 11.2305 4.6875 11.6875C4.6875 12.1445 5.07422 12.5312 5.53125 12.5312H8.34375C8.80078 12.5312 9.1875 12.1445 9.1875 11.6875ZM9.1875 14.7812C9.1875 14.3242 8.80078 13.9375 8.34375 13.9375H5.53125C5.07422 13.9375 4.6875 14.3242 4.6875 14.7812C4.6875 15.2383 5.07422 15.625 5.53125 15.625H8.34375C8.80078 15.625 9.1875 15.2383 9.1875 14.7812ZM10.875 17.3125H18.75C19.0664 17.3125 19.3125 17.0664 19.3125 16.75V7.75C19.3125 7.43359 19.0664 7.1875 18.75 7.1875H10.875V17.3125ZM9.1875 8.59375C9.1875 8.13672 8.80078 7.75 8.34375 7.75H5.53125C5.07422 7.75 4.6875 8.13672 4.6875 8.59375C4.6875 9.05078 5.07422 9.4375 5.53125 9.4375H8.34375C8.80078 9.4375 9.1875 9.05078 9.1875 8.59375Z" fill="#ADB5BB"/>
</svg>
