<svg width="16" height="16" viewBox="0 0 16 16" fill="none" xmlns="http://www.w3.org/2000/svg">
<path d="M14.3438 6.21875C15.1914 6.21875 15.875 6.90234 15.875 7.75C15.875 8.59766 15.1914 9.28125 14.3438 9.28125H3.02345L1.57423 11.0859C1.4922 11.1953 1.35548 11.25 1.21877 11.25H0.699234C0.398453 11.25 0.207046 10.9766 0.261734 10.7031L1.00002 7.75L0.261734 4.79688C0.179703 4.52344 0.398453 4.25 0.699234 4.25H1.21877C1.35548 4.25 1.4922 4.30469 1.57423 4.41406L3.02345 6.21875H14.3438Z" fill="currentColor"/>
<path opacity="0.5" d="M4.25392 1.76172C4.17188 1.48828 4.36329 1.1875 4.66407 1.1875H5.8672C6.11329 1.1875 6.35938 1.29688 6.52345 1.46094L10.8711 6.21875H5.73048L4.25392 1.76172ZM4.25392 13.7383L5.73048 9.28125H10.8711L6.52345 14.0391C6.33204 14.2031 6.11329 14.3125 5.8672 14.3125H4.66407C4.36329 14.3125 4.17188 14.0117 4.25392 13.7383Z" fill="currentColor"/>
</svg>
