<svg width="16" height="16" viewBox="0 0 16 16" fill="none" xmlns="http://www.w3.org/2000/svg">
<path d="M14.2841 6.46875C15.1318 6.46875 15.8154 7.15234 15.8154 8C15.8154 8.84766 15.1318 9.53125 14.2841 9.53125H10.8114L6.46379 14.2891C6.27238 14.4531 6.05363 14.5625 5.80754 14.5625H4.60442C4.30363 14.5625 4.11223 14.2617 4.19426 13.9883L5.67082 9.53125H2.96379L1.51457 11.3359C1.43254 11.4453 1.29582 11.5 1.1591 11.5H0.639572C0.338791 11.5 0.147385 11.2266 0.202072 10.9531L0.940353 8L0.202072 5.04688C0.120041 4.77344 0.338791 4.5 0.639572 4.5H1.1591C1.29582 4.5 1.43254 4.55469 1.51457 4.66406L2.96379 6.46875H5.67082L4.19426 2.01172C4.11223 1.73828 4.30363 1.4375 4.60442 1.4375H5.80754C6.05363 1.4375 6.27238 1.54688 6.46379 1.71094L10.8114 6.46875H14.2841Z" fill="white"/>
</svg>
