<svg width="16" height="16" viewBox="0 0 16 16" fill="none" xmlns="http://www.w3.org/2000/svg">
<path d="M8 15C4.14453 15 1 11.8555 1 8C1 4.14453 4.14453 1 8 1C11.8555 1 15 4.14453 15 8C15 11.8555 11.8555 15 8 15ZM10.7891 6.00391C10.8984 5.75781 10.8438 5.51172 10.6797 5.34766C10.4883 5.15625 10.2422 5.10156 9.99609 5.21094L4.63672 7.50781C4.39062 7.61719 4.22656 7.89062 4.30859 8.16406C4.36328 8.46484 4.60938 8.65625 4.88281 8.65625H7.34375V11.1172C7.34375 11.3906 7.53516 11.6641 7.83594 11.7188C7.86328 11.7188 7.91797 11.7188 7.94531 11.7188C8.19141 11.7188 8.41016 11.582 8.49219 11.3633L10.7891 6.00391Z" fill="white"/>
</svg>
