<svg width="16" height="16" viewBox="0 0 16 16" fill="none" xmlns="http://www.w3.org/2000/svg">
<path d="M6.25 6C6.25 5.04297 7.04297 4.25 8 4.25C8.95703 4.25 9.75 5.04297 9.75 6C9.75 6.95703 8.95703 7.75 8 7.75C7.04297 7.75 6.25 6.95703 6.25 6Z" fill="#ADB5BB"/>
<path opacity="0.5" d="M2.75 5.91797C2.75 3.04688 5.10156 0.75 8 0.75C10.8984 0.75 13.25 3.07422 13.25 5.91797C13.25 9.17188 9.96875 13.082 8.60156 14.5586C8.27344 14.9141 7.72656 14.9141 7.39844 14.5586C6.03125 13.082 2.75 9.17188 2.75 5.91797ZM9.75 6C9.75 5.04297 8.95703 4.25 8 4.25C7.04297 4.25 6.25 5.04297 6.25 6C6.25 6.95703 7.04297 7.75 8 7.75C8.95703 7.75 9.75 6.95703 9.75 6Z" fill="#ADB5BB"/>
</svg>
