<svg width="16" height="16" viewBox="0 0 16 16" fill="none" xmlns="http://www.w3.org/2000/svg">
<g clip-path="url(#clip0_2460_5954)">
<path d="M7.53515 1.14014C7.80859 0.94873 8.1914 0.94873 8.46484 1.14014L14.5898 5.07764C14.918 5.29639 15.082 5.6792 14.9726 6.06201C14.8633 6.44482 14.5078 6.69092 14.125 6.69092H13.25V12.3784L14.6445 13.4175C14.8633 13.5815 15 13.855 15 14.1284C15 14.6206 14.6172 15.0034 14.125 15.0034H1.87499C1.3828 15.0034 0.999992 14.6206 0.999992 14.1284C0.999992 13.855 1.13671 13.5815 1.35546 13.4175L2.74999 12.3784V6.69092H1.87499C1.49218 6.69092 1.13671 6.44482 1.02734 6.06201C0.917961 5.6792 1.08202 5.29639 1.41015 5.07764L7.53515 1.14014ZM10.1875 6.69092V12.3784H11.9375V6.69092H10.1875ZM7.12499 12.3784H8.87499V6.69092H7.12499V12.3784ZM4.06249 6.69092V12.3784H5.81249V6.69092H4.06249Z" fill="white"/>
</g>
<defs>
<clipPath id="clip0_2460_5954">
<rect width="16" height="16" fill="white"/>
</clipPath>
</defs>
</svg>
