<svg width="16" height="16" viewBox="0 0 16 16" fill="none" xmlns="http://www.w3.org/2000/svg">
<path d="M8.46485 0.886719L14.5899 4.82422C14.918 5.04297 15.082 5.42578 14.9727 5.80859C14.8633 6.19141 14.5078 6.4375 14.125 6.4375H1.87501C1.49219 6.4375 1.13673 6.19141 1.02735 5.80859C0.917976 5.42578 1.08204 5.04297 1.41016 4.82422L7.53516 0.886719C7.8086 0.695312 8.19141 0.695312 8.46485 0.886719Z" fill="#ADB5BB"/>
<path opacity="0.5" d="M1 13.875C1 13.6016 1.13672 13.3281 1.35547 13.1641L2.75 12.125V6.4375H4.0625V12.125H5.8125V6.4375H7.125V12.125H8.875V6.4375H10.1875V12.125H11.9375V6.4375H13.25V12.125L14.6445 13.1641C14.8633 13.3281 15 13.6016 15 13.875C15 14.3672 14.6172 14.75 14.125 14.75H1.875C1.38281 14.75 1 14.3672 1 13.875Z" fill="#ADB5BB"/>
</svg>
