<svg width="16" height="16" viewBox="0 0 16 16" fill="none" xmlns="http://www.w3.org/2000/svg">
<path d="M1.875 1.625H14.125C15.082 1.625 15.875 2.41797 15.875 3.375V4.25H0.125V3.375C0.125 2.41797 0.917969 1.625 1.875 1.625ZM6.46875 7.75C6.46875 8.59766 5.78516 9.28125 4.9375 9.28125C4.08984 9.28125 3.40625 8.59766 3.40625 7.75C3.40625 6.90234 4.08984 6.21875 4.9375 6.21875C5.78516 6.21875 6.46875 6.90234 6.46875 7.75ZM6.87891 12.125H2.99609C2.44922 12.125 2.01172 11.6055 2.36719 11.168C2.77734 10.6758 3.37891 10.375 4.0625 10.375H5.8125C6.49609 10.375 7.09766 10.6758 7.50781 11.168C7.86328 11.6055 7.45312 12.125 6.87891 12.125Z" fill="currentColor"/>
<path opacity="0.5" d="M0.125 4.25H15.875V12.125C15.875 13.082 15.082 13.875 14.125 13.875H1.875C0.917969 13.875 0.125 13.082 0.125 12.125V4.25ZM2.36719 11.168C2.03906 11.6055 2.44922 12.125 2.99609 12.125H6.87891C7.45312 12.125 7.86328 11.6055 7.50781 11.168C7.09766 10.6758 6.49609 10.375 5.8125 10.375H4.0625C3.37891 10.375 2.77734 10.6758 2.36719 11.168ZM6.46875 7.75C6.46875 6.90234 5.78516 6.21875 4.9375 6.21875C4.08984 6.21875 3.40625 6.90234 3.40625 7.75C3.40625 8.59766 4.08984 9.28125 4.9375 9.28125C5.78516 9.28125 6.46875 8.59766 6.46875 7.75ZM9.3125 7.09375C9.3125 7.44922 9.61328 7.75 9.96875 7.75H13.0312C13.3867 7.75 13.6875 7.44922 13.6875 7.09375C13.6875 6.73828 13.3867 6.4375 13.0312 6.4375H9.96875C9.61328 6.4375 9.3125 6.73828 9.3125 7.09375ZM9.3125 9.71875C9.3125 10.0742 9.61328 10.375 9.96875 10.375H13.0312C13.3867 10.375 13.6875 10.0742 13.6875 9.71875C13.6875 9.36328 13.3867 9.0625 13.0312 9.0625H9.96875C9.61328 9.0625 9.3125 9.36328 9.3125 9.71875Z" fill="currentColor"/>
</svg>
