<svg width="16" height="16" viewBox="0 0 16 16" fill="none" xmlns="http://www.w3.org/2000/svg">
<path d="M1.875 1.875H14.125C15.082 1.875 15.875 2.66797 15.875 3.625V12.375C15.875 13.332 15.082 14.125 14.125 14.125H1.875C0.917969 14.125 0.125 13.332 0.125 12.375V3.625C0.125 2.66797 0.917969 1.875 1.875 1.875ZM4.0625 8.875C2.85938 8.875 1.875 9.85938 1.875 11.0625C1.875 11.3086 2.06641 11.5 2.3125 11.5H7.5625C7.80859 11.5 8 11.3086 8 11.0625C8 9.85938 7.01562 8.875 5.8125 8.875H4.0625ZM3.40625 6.25C3.40625 7.09766 4.08984 7.78125 4.9375 7.78125C5.78516 7.78125 6.46875 7.09766 6.46875 6.25C6.46875 5.40234 5.78516 4.71875 4.9375 4.71875C4.08984 4.71875 3.40625 5.40234 3.40625 6.25ZM9.96875 4.9375C9.61328 4.9375 9.3125 5.23828 9.3125 5.59375C9.3125 5.94922 9.61328 6.25 9.96875 6.25H13.0312C13.3867 6.25 13.6875 5.94922 13.6875 5.59375C13.6875 5.23828 13.3867 4.9375 13.0312 4.9375H9.96875ZM9.96875 7.5625C9.61328 7.5625 9.3125 7.86328 9.3125 8.21875C9.3125 8.57422 9.61328 8.875 9.96875 8.875H13.0312C13.3867 8.875 13.6875 8.57422 13.6875 8.21875C13.6875 7.86328 13.3867 7.5625 13.0312 7.5625H9.96875Z" fill="white"/>
</svg>
