<svg width="18" height="16" viewBox="0 0 18 16" fill="none" xmlns="http://www.w3.org/2000/svg">
<path d="M8.75 1.65625C10.3086 1.65625 11.5938 2.94141 11.5938 4.5C11.5938 6.05859 10.3086 7.34375 8.75 7.34375C7.19141 7.34375 5.90625 6.05859 5.90625 4.5C5.90625 2.94141 7.19141 1.65625 8.75 1.65625ZM2.625 3.625C3.71875 3.625 4.59375 4.5 4.59375 5.59375C4.59375 6.6875 3.71875 7.5625 2.625 7.5625C1.53125 7.5625 0.65625 6.6875 0.65625 5.59375C0.65625 4.5 1.53125 3.625 2.625 3.625ZM0 12.5938C0 10.6523 1.55859 9.09375 3.5 9.09375C3.85547 9.09375 4.18359 9.14844 4.51172 9.23047C3.60938 10.2422 3.0625 11.582 3.0625 13.0312V13.4688C3.0625 13.7695 3.11719 14.0703 3.25391 14.3438H0.875C0.382812 14.3438 0 13.9609 0 13.4688V12.5938ZM14.2461 14.3438C14.3828 14.0703 14.4375 13.7695 14.4375 13.4688V13.0312C14.4375 11.582 13.8906 10.2422 12.9883 9.23047C13.3164 9.14844 13.6445 9.09375 14 9.09375C15.9414 9.09375 17.5 10.6523 17.5 12.5938V13.4688C17.5 13.9609 17.1172 14.3438 16.625 14.3438H14.2461ZM12.9062 5.59375C12.9062 4.5 13.7812 3.625 14.875 3.625C15.9688 3.625 16.8438 4.5 16.8438 5.59375C16.8438 6.6875 15.9688 7.5625 14.875 7.5625C13.7812 7.5625 12.9062 6.6875 12.9062 5.59375ZM4.375 13.0312C4.375 10.625 6.34375 8.65625 8.75 8.65625C11.1562 8.65625 13.125 10.625 13.125 13.0312V13.4688C13.125 13.9609 12.7422 14.3438 12.25 14.3438H5.25C4.75781 14.3438 4.375 13.9609 4.375 13.4688V13.0312Z" fill="white"/>
</svg>
