<svg width="18" height="16" viewBox="0 0 18 16" fill="none" xmlns="http://www.w3.org/2000/svg">
<path d="M4.375 12.5625C4.375 10.1562 6.34375 8.1875 8.75 8.1875C11.1562 8.1875 13.125 10.1562 13.125 12.5625V13C13.125 13.4922 12.7422 13.875 12.25 13.875H5.25C4.75781 13.875 4.375 13.4922 4.375 13V12.5625ZM5.90625 4.03125C5.90625 2.47266 7.19141 1.1875 8.75 1.1875C10.3086 1.1875 11.5938 2.47266 11.5938 4.03125C11.5938 5.58984 10.3086 6.875 8.75 6.875C7.19141 6.875 5.90625 5.58984 5.90625 4.03125Z" fill="currentColor"/>
<path opacity="0.5" d="M0 12.125C0 10.1836 1.55859 8.625 3.5 8.625C3.85547 8.625 4.18359 8.67969 4.51172 8.76172C3.60938 9.77344 3.0625 11.1133 3.0625 12.5625V13C3.0625 13.3008 3.11719 13.6016 3.25391 13.875H0.875C0.382812 13.875 0 13.4922 0 13V12.125ZM4.59375 5.125C4.59375 6.21875 3.71875 7.09375 2.625 7.09375C1.53125 7.09375 0.65625 6.21875 0.65625 5.125C0.65625 4.03125 1.53125 3.15625 2.625 3.15625C3.71875 3.15625 4.59375 4.03125 4.59375 5.125ZM16.8438 5.125C16.8438 6.21875 15.9688 7.09375 14.875 7.09375C13.7812 7.09375 12.9062 6.21875 12.9062 5.125C12.9062 4.03125 13.7812 3.15625 14.875 3.15625C15.9688 3.15625 16.8438 4.03125 16.8438 5.125ZM12.9883 8.76172C13.3164 8.67969 13.6445 8.625 14 8.625C15.9414 8.625 17.5 10.1836 17.5 12.125V13C17.5 13.4922 17.1172 13.875 16.625 13.875H14.2461C14.3828 13.6016 14.4375 13.3008 14.4375 13V12.5625C14.4375 11.1133 13.8906 9.77344 12.9883 8.76172Z" fill="currentColor"/>
</svg>
