<svg width="16" height="16" viewBox="0 0 16 16" fill="none" xmlns="http://www.w3.org/2000/svg">
<path d="M7.34375 4.25C7.34375 3.89453 7.64453 3.59375 8 3.59375C8.35547 3.59375 8.65625 3.89453 8.65625 4.25V4.6875H9.09375C9.44922 4.6875 9.75 4.98828 9.75 5.34375C9.75 5.69922 9.44922 6 9.09375 6H7.39844C7.125 6 6.90625 6.21875 6.90625 6.49219C6.90625 6.76562 7.09766 6.95703 7.34375 7.01172L8.82031 7.20312C9.72266 7.3125 10.4062 8.07812 10.4062 9.00781C10.4062 9.99219 9.64062 10.7852 8.65625 10.8125V11.25C8.65625 11.6055 8.35547 11.9062 8 11.9062C7.64453 11.9062 7.34375 11.6055 7.34375 11.25V10.8125H6.46875C6.11328 10.8125 5.8125 10.5117 5.8125 10.1562C5.8125 9.80078 6.11328 9.5 6.46875 9.5H8.60156C8.875 9.5 9.09375 9.28125 9.09375 9.00781C9.09375 8.73438 8.90234 8.54297 8.65625 8.48828L7.17969 8.29688C6.27734 8.1875 5.59375 7.42188 5.59375 6.49219C5.59375 5.50781 6.35938 4.71484 7.34375 4.6875V4.25Z" fill="currentColor"/>
<path opacity="0.5" d="M1 7.75C1 3.89453 4.14453 0.75 8 0.75C11.8555 0.75 15 3.89453 15 7.75C15 11.6055 11.8555 14.75 8 14.75C4.14453 14.75 1 11.6055 1 7.75ZM5.59375 6.49219C5.59375 7.42188 6.27734 8.1875 7.17969 8.29688L8.65625 8.48828C8.90234 8.54297 9.09375 8.73438 9.09375 9.00781C9.09375 9.28125 8.875 9.5 8.60156 9.5H6.46875C6.11328 9.5 5.8125 9.80078 5.8125 10.1562C5.8125 10.5117 6.11328 10.8125 6.46875 10.8125H7.34375V11.25C7.34375 11.6055 7.64453 11.9062 8 11.9062C8.35547 11.9062 8.65625 11.6055 8.65625 11.25V10.8125C9.64062 10.7852 10.4062 9.99219 10.4062 9.00781C10.4062 8.07812 9.72266 7.3125 8.82031 7.20312L7.34375 7.01172C7.09766 6.98438 6.90625 6.76562 6.90625 6.51953C6.90625 6.21875 7.125 6 7.39844 6H9.09375C9.44922 6 9.75 5.69922 9.75 5.34375C9.75 4.98828 9.44922 4.6875 9.09375 4.6875H8.65625V4.25C8.65625 3.89453 8.35547 3.59375 8 3.59375C7.64453 3.59375 7.34375 3.89453 7.34375 4.25V4.6875C6.35938 4.71484 5.59375 5.53516 5.59375 6.49219Z" fill="currentColor"/>
</svg>
