<svg width="16" height="16" viewBox="0 0 16 16" fill="none" xmlns="http://www.w3.org/2000/svg">
<path d="M8 15C4.14453 15 1 11.8555 1 8C1 4.14453 4.14453 1 8 1C11.8555 1 15 4.14453 15 8C15 11.8555 11.8555 15 8 15ZM8 3.84375C7.64453 3.84375 7.34375 4.14453 7.34375 4.5V4.9375C6.35938 4.96484 5.59375 5.75781 5.59375 6.74219C5.59375 7.67188 6.27734 8.4375 7.17969 8.54688L8.65625 8.73828C8.90234 8.79297 9.09375 8.98438 9.09375 9.25781C9.09375 9.53125 8.875 9.75 8.60156 9.75H6.46875C6.11328 9.75 5.8125 10.0508 5.8125 10.4062C5.8125 10.7617 6.11328 11.0625 6.46875 11.0625H7.34375V11.5C7.34375 11.8555 7.64453 12.1562 8 12.1562C8.35547 12.1562 8.65625 11.8555 8.65625 11.5V11.0625C9.64062 11.0352 10.4062 10.2422 10.4062 9.25781C10.4062 8.32812 9.72266 7.5625 8.82031 7.45312L7.34375 7.26172C7.09766 7.20703 6.90625 7.01562 6.90625 6.74219C6.90625 6.46875 7.125 6.25 7.39844 6.25H9.09375C9.44922 6.25 9.75 5.94922 9.75 5.59375C9.75 5.23828 9.44922 4.9375 9.09375 4.9375H8.65625V4.5C8.65625 4.14453 8.35547 3.84375 8 3.84375Z" fill="white"/>
</svg>
