<svg width="16" height="16" viewBox="0 0 16 16" fill="none" xmlns="http://www.w3.org/2000/svg">
<path d="M8.30078 6.57423L9.61328 5.26173C9.69531 5.1797 9.75 5.07032 9.75 4.93361V1.2422C9.75 0.941418 10.0508 0.722668 10.3242 0.859386C12.0469 1.70704 13.25 3.48439 13.25 5.56251C13.25 8.46095 10.8984 10.8125 8 10.8125C5.10156 10.8125 2.75 8.46095 2.75 5.56251C2.75 3.48439 3.95312 1.70704 5.67578 0.859386C5.94922 0.722668 6.25 0.941418 6.25 1.2422V4.93361C6.25 5.07032 6.30469 5.1797 6.38672 5.26173L7.69922 6.57423C7.86328 6.73829 8.13672 6.73829 8.30078 6.57423Z" fill="#ADB5BB"/>
<path opacity="0.5" d="M5.375 10.1016C5.75781 10.3477 6.16797 10.5117 6.63281 10.6211C6.85156 10.7031 7.07031 10.7305 7.28906 10.7578C7.39844 10.7852 7.53516 10.7852 7.64453 10.8125C7.75391 10.8125 7.89062 10.8125 8 10.8125C8.95703 10.8125 9.85938 10.5664 10.625 10.1016V13.4375C10.625 14.1758 10.0508 14.75 9.3125 14.75H6.6875C5.97656 14.75 5.375 14.1758 5.375 13.4375V10.1016Z" fill="#ADB5BB"/>
</svg>
