<svg width="16" height="16" viewBox="0 0 16 16" fill="none" xmlns="http://www.w3.org/2000/svg">
<path d="M6.38672 5.47786L7.69922 6.79036C7.86328 6.95442 8.13672 6.95442 8.30078 6.79036L9.61328 5.47786C9.69531 5.39582 9.75 5.28645 9.75 5.14973V1.45832C9.75 1.15754 10.0508 0.938793 10.3242 1.07551C12.0469 1.92317 13.25 3.72786 13.25 5.77864C13.25 7.72004 12.1836 9.41536 10.625 10.3177V13.6536C10.625 14.3919 10.0508 14.9661 9.3125 14.9661H6.6875C5.97656 14.9661 5.375 14.3919 5.375 13.6536V10.3177C3.81641 9.41536 2.75 7.72004 2.75 5.77864C2.75 3.70051 3.95312 1.92317 5.67578 1.07551C5.94922 0.938793 6.25 1.15754 6.25 1.45832V5.14973C6.25 5.28645 6.30469 5.39582 6.38672 5.47786Z" fill="white"/>
</svg>
