<svg width="16" height="16" viewBox="0 0 16 16" fill="none" xmlns="http://www.w3.org/2000/svg">
<path d="M10.6113 8.65625C10.5293 10.4336 10.1465 12.0469 9.59961 13.2227C9.27148 13.9062 8.94336 14.3711 8.61523 14.6719C8.31445 14.9453 8.12305 15 8.01367 15C7.9043 15 7.68555 14.9453 7.38477 14.6719C7.05664 14.3711 6.72852 13.9062 6.42773 13.2227C5.85352 12.0469 5.4707 10.4336 5.38867 8.65625H10.6113ZM5.38867 7.34375C5.4707 5.59375 5.85352 3.95312 6.40039 2.77734C6.72852 2.09375 7.05664 1.62891 7.38477 1.32812C7.68555 1.05469 7.87695 1 7.98633 1C8.0957 1 8.31445 1.05469 8.61523 1.32812C8.94336 1.62891 9.27148 2.09375 9.57227 2.77734C10.1465 3.95312 10.5293 5.59375 10.6113 7.34375H5.38867ZM4.07617 7.34375H1.04102C1.28711 4.58203 3.14648 2.28516 5.66211 1.41016C4.78711 2.83203 4.1582 4.99219 4.07617 7.34375ZM1.04102 8.65625H4.07617C4.1582 11.0078 4.78711 13.168 5.66211 14.5898C3.14648 13.7148 1.28711 11.418 1.04102 8.65625ZM11.9238 8.65625H14.959C14.7129 11.418 12.8535 13.7148 10.3379 14.5898C11.2129 13.168 11.8145 11.0078 11.9238 8.65625ZM14.959 7.34375H11.9238C11.8145 4.99219 11.2129 2.83203 10.3379 1.41016C12.8535 2.28516 14.7129 4.58203 14.959 7.34375Z" fill="white"/>
</svg>
