<svg width="16" height="16" viewBox="0 0 16 16" fill="none" xmlns="http://www.w3.org/2000/svg">
<path d="M7.58984 0.75L8.38281 2.19922C8.54688 2.5 8.49219 2.91016 8.27344 3.18359L7.83594 3.70312C7.53516 4.00391 7.53516 4.49609 7.80859 4.82422L8.19141 5.26172C8.32812 5.45312 8.35547 5.69922 8.21875 5.89062C8.08203 6.08203 7.83594 6.16406 7.61719 6.08203L6.98828 5.89062C6.79688 5.80859 6.57812 5.83594 6.41406 5.91797L6.25 6C6.00391 6.13672 5.86719 6.41016 5.97656 6.68359C6.00391 6.79297 6.08594 6.90234 6.22266 6.98438L7.15234 7.53125C7.42578 7.66797 7.72656 7.75 8.02734 7.75H9.20312C9.55859 7.75 9.88672 7.88672 10.1328 8.13281L10.2422 8.24219C10.4883 8.48828 10.625 8.81641 10.625 9.17188V9.39062C10.625 9.85547 10.3789 10.293 9.96875 10.5391L9.75 10.6758C9.33984 10.8945 9.03906 11.3047 8.90234 11.7695L8.84766 12.0703C8.73828 12.5078 8.38281 12.8633 7.94531 13C7.53516 13.1094 7.125 12.8086 7.125 12.3711V11.3047C7.125 11.0039 6.96094 10.7305 6.6875 10.5938C6.41406 10.457 6.25 10.1836 6.25 9.88281V8.78906C6.25 8.29688 5.92188 7.88672 5.45703 7.75L3.81641 7.25781C3.40625 7.14844 3.05078 6.90234 2.83203 6.54688L1.65625 4.79688C2.72266 2.52734 4.96484 0.914062 7.58984 0.75ZM14.1523 4.41406C14.6992 5.39844 15 6.54688 15 7.75C15 8.1875 14.9727 8.59766 14.8906 9.03516L12.7852 8.32422C12.5391 8.24219 12.3203 8.02344 12.2383 7.77734L11.7461 6.32812C11.6094 5.89062 11.8281 5.42578 12.2383 5.23438L14.1523 4.41406Z" fill="currentColor"/>
<path opacity="0.5" d="M1 7.75C1 6.68359 1.24609 5.69922 1.65625 4.79688C2.03906 5.37109 2.44922 5.97266 2.83203 6.54688C3.05078 6.90234 3.40625 7.14844 3.81641 7.28516L5.45703 7.75C5.70312 7.80469 5.89453 7.96875 6.03125 8.13281C6.11328 8.24219 6.16797 8.32422 6.19531 8.46094C6.22266 8.51562 6.22266 8.57031 6.25 8.625C6.25 8.65234 6.25 8.67969 6.25 8.70703C6.25 8.73438 6.25 8.73438 6.25 8.76172V8.78906C6.25 9.17188 6.25 9.52734 6.25 9.88281C6.25 10.1836 6.41406 10.457 6.6875 10.5938C6.82422 10.6758 6.93359 10.7578 7.01562 10.8945C7.04297 10.9492 7.07031 11.0039 7.09766 11.0859C7.09766 11.1133 7.125 11.168 7.125 11.1953C7.125 11.2227 7.125 11.2227 7.125 11.25C7.125 11.25 7.125 11.2773 7.125 11.3047C7.125 11.6602 7.125 12.0156 7.125 12.3711C7.125 12.8086 7.53516 13.1094 7.94531 13C8.38281 12.8633 8.73828 12.5078 8.84766 12.0703L8.92969 11.7695C9.03906 11.3047 9.33984 10.8945 9.75 10.6758L9.96875 10.5391C10.3789 10.293 10.625 9.85547 10.625 9.39062V9.17188C10.625 8.81641 10.4883 8.48828 10.2422 8.24219L10.1328 8.13281C9.88672 7.88672 9.55859 7.75 9.20312 7.75C8.82031 7.75 8.4375 7.75 8.02734 7.75C7.72656 7.75 7.42578 7.66797 7.15234 7.53125C6.85156 7.33984 6.52344 7.17578 6.22266 6.98438C6.08594 6.90234 6.00391 6.79297 5.97656 6.68359C5.89453 6.41016 6.00391 6.13672 6.25 6C6.30469 5.97266 6.35938 5.94531 6.41406 5.91797C6.57812 5.83594 6.79688 5.80859 6.98828 5.89062L7.61719 6.10938C7.83594 6.16406 8.08203 6.08203 8.21875 5.89062C8.35547 5.69922 8.32812 5.45312 8.19141 5.26172C8.05469 5.125 7.94531 4.96094 7.80859 4.82422C7.53516 4.49609 7.53516 4.03125 7.83594 3.70312C7.97266 3.51172 8.10938 3.34766 8.27344 3.18359C8.49219 2.91016 8.54688 2.5 8.38281 2.19922C8.10938 1.70703 7.86328 1.24219 7.61719 0.777344C7.72656 0.75 7.86328 0.75 8 0.75C10.6797 0.75 12.9766 2.22656 14.1523 4.41406C13.5234 4.6875 12.8945 4.98828 12.2383 5.26172C11.8281 5.42578 11.6094 5.89062 11.7461 6.32812C11.9102 6.82031 12.0742 7.28516 12.2383 7.77734C12.3203 8.02344 12.5391 8.24219 12.7852 8.32422L14.8906 9.03516C14.2891 12.2891 11.4453 14.75 8 14.75C4.14453 14.75 1 11.6055 1 7.75Z" fill="currentColor"/>
</svg>
