<svg width="16" height="16" viewBox="0 0 16 16" fill="none" xmlns="http://www.w3.org/2000/svg">
<path d="M5.15625 2.5H6.46875C6.82422 2.5 7.125 2.80078 7.125 3.15625C7.125 3.51172 6.82422 3.8125 6.46875 3.8125H5.15625C4.80078 3.8125 4.5 3.51172 4.5 3.15625C4.5 2.80078 4.80078 2.5 5.15625 2.5ZM5.15625 5.125H6.46875C6.82422 5.125 7.125 5.42578 7.125 5.78125C7.125 6.13672 6.82422 6.4375 6.46875 6.4375H5.15625C4.80078 6.4375 4.5 6.13672 4.5 5.78125C4.5 5.42578 4.80078 5.125 5.15625 5.125ZM8.10938 7.3125C8.41016 7.3125 8.65625 7.55859 8.65625 7.85938V7.96875H8.875C9.17578 7.96875 9.42188 8.21484 9.42188 8.51562C9.42188 8.81641 9.17578 9.0625 8.875 9.0625H7.58984C7.39844 9.0625 7.23438 9.22656 7.23438 9.39062C7.23438 9.58203 7.34375 9.71875 7.50781 9.74609L8.65625 9.9375C9.36719 10.0469 9.85938 10.6484 9.85938 11.3594C9.85938 12.0703 9.33984 12.6445 8.65625 12.7539V12.8906C8.65625 13.1914 8.41016 13.4375 8.10938 13.4375C7.80859 13.4375 7.5625 13.1914 7.5625 12.8906V12.7812H6.90625C6.60547 12.7812 6.35938 12.5352 6.35938 12.2344C6.35938 11.9336 6.60547 11.6875 6.90625 11.6875H8.4375C8.60156 11.6875 8.76562 11.5508 8.76562 11.3594C8.76562 11.1953 8.65625 11.0312 8.49219 11.0039L7.34375 10.8125C6.66016 10.7031 6.14062 10.1016 6.14062 9.41797C6.14062 8.625 6.76953 7.96875 7.5625 7.96875V7.85938C7.5625 7.55859 7.80859 7.3125 8.10938 7.3125Z" fill="#ADB5BB"/>
<path opacity="0.5" d="M2.75 2.5C2.75 1.54297 3.54297 0.75 4.5 0.75H8.60156C9.06641 0.75 9.50391 0.941406 9.83203 1.26953L12.7305 4.16797C13.0586 4.49609 13.25 4.96094 13.25 5.42578V13C13.25 13.957 12.457 14.75 11.5 14.75H4.5C3.54297 14.75 2.75 13.957 2.75 13V2.5ZM4.5 3.15625C4.5 3.51172 4.80078 3.8125 5.15625 3.8125H6.46875C6.82422 3.8125 7.125 3.51172 7.125 3.15625C7.125 2.80078 6.82422 2.5 6.46875 2.5H5.15625C4.80078 2.5 4.5 2.80078 4.5 3.15625ZM4.5 5.78125C4.5 6.13672 4.80078 6.4375 5.15625 6.4375H6.46875C6.82422 6.4375 7.125 6.13672 7.125 5.78125C7.125 5.42578 6.82422 5.125 6.46875 5.125H5.15625C4.80078 5.125 4.5 5.42578 4.5 5.78125ZM6.14062 9.41797C6.14062 10.1016 6.66016 10.7031 7.34375 10.8125L8.49219 11.0039C8.65625 11.0312 8.76562 11.1953 8.76562 11.3594C8.76562 11.5508 8.60156 11.6875 8.4375 11.6875H6.90625C6.60547 11.6875 6.35938 11.9336 6.35938 12.2344C6.35938 12.5352 6.60547 12.7812 6.90625 12.7812H7.5625V12.8906C7.5625 13.1914 7.80859 13.4375 8.10938 13.4375C8.41016 13.4375 8.65625 13.1914 8.65625 12.8906V12.7539C9.33984 12.6445 9.85938 12.0703 9.85938 11.3594C9.85938 10.6484 9.33984 10.0469 8.65625 9.9375L7.50781 9.74609C7.34375 9.71875 7.23438 9.58203 7.23438 9.41797C7.23438 9.22656 7.39844 9.0625 7.58984 9.0625H8.875C9.17578 9.0625 9.42188 8.81641 9.42188 8.51562C9.42188 8.21484 9.17578 7.96875 8.875 7.96875H8.65625V7.85938C8.65625 7.55859 8.41016 7.3125 8.10938 7.3125C7.80859 7.3125 7.5625 7.55859 7.5625 7.85938V7.96875C6.76953 7.96875 6.14062 8.625 6.14062 9.41797ZM8.4375 2.36328V4.90625C8.4375 5.26172 8.73828 5.5625 9.09375 5.5625H11.6641L8.4375 2.36328Z" fill="#ADB5BB"/>
</svg>
