<svg width="16" height="16" viewBox="0 0 16 16" fill="none" xmlns="http://www.w3.org/2000/svg">
<path d="M2.75 2.75C2.75 1.79297 3.54297 1 4.5 1H8.60156C9.06641 1 9.50391 1.19141 9.83203 1.51953L12.7305 4.41797C13.0586 4.74609 13.25 5.21094 13.25 5.67578V13.25C13.25 14.207 12.457 15 11.5 15H4.5C3.54297 15 2.75 14.207 2.75 13.25V2.75ZM8.4375 2.61328V5.15625C8.4375 5.51172 8.73828 5.8125 9.09375 5.8125H11.6641L8.4375 2.61328ZM4.5 3.40625C4.5 3.76172 4.80078 4.0625 5.15625 4.0625H6.46875C6.82422 4.0625 7.125 3.76172 7.125 3.40625C7.125 3.05078 6.82422 2.75 6.46875 2.75H5.15625C4.80078 2.75 4.5 3.05078 4.5 3.40625ZM4.5 6.03125C4.5 6.38672 4.80078 6.6875 5.15625 6.6875H6.46875C6.82422 6.6875 7.125 6.38672 7.125 6.03125C7.125 5.67578 6.82422 5.375 6.46875 5.375H5.15625C4.80078 5.375 4.5 5.67578 4.5 6.03125ZM7.5625 8.10938V8.21875C6.76953 8.21875 6.14062 8.875 6.14062 9.66797C6.14062 10.3516 6.66016 10.9531 7.34375 11.0625L8.49219 11.2539C8.65625 11.2812 8.76562 11.4453 8.76562 11.6094C8.76562 11.8008 8.60156 11.9375 8.4375 11.9375H6.90625C6.60547 11.9375 6.35938 12.1836 6.35938 12.4844C6.35938 12.7852 6.60547 13.0312 6.90625 13.0312H7.5625V13.1406C7.5625 13.4414 7.80859 13.6875 8.10938 13.6875C8.41016 13.6875 8.65625 13.4414 8.65625 13.1406V13.0039C9.33984 12.8945 9.85938 12.3203 9.85938 11.6094C9.85938 10.8984 9.36719 10.2969 8.65625 10.1875L7.50781 9.99609C7.34375 9.96875 7.23438 9.83203 7.23438 9.64062C7.23438 9.47656 7.39844 9.3125 7.58984 9.3125H8.875C9.17578 9.3125 9.42188 9.06641 9.42188 8.76562C9.42188 8.46484 9.17578 8.21875 8.875 8.21875H8.65625V8.10938C8.65625 7.80859 8.41016 7.5625 8.10938 7.5625C7.80859 7.5625 7.5625 7.80859 7.5625 8.10938Z" fill="white"/>
</svg>
