<svg width="16" height="16" viewBox="0 0 16 16" fill="none" xmlns="http://www.w3.org/2000/svg">
<path d="M5.375 1.4375C5.86719 1.4375 6.25 1.82031 6.25 2.3125V3.1875H9.75V2.3125C9.75 1.82031 10.1328 1.4375 10.625 1.4375C11.1172 1.4375 11.5 1.82031 11.5 2.3125V3.1875H12.375C13.332 3.1875 14.125 3.98047 14.125 4.9375V6.25H1.875V4.9375C1.875 3.98047 2.66797 3.1875 3.625 3.1875H4.5V2.3125C4.5 1.82031 4.88281 1.4375 5.375 1.4375ZM1.875 7.5625H14.125V12.8125C14.125 13.7695 13.332 14.5625 12.375 14.5625H3.625C2.66797 14.5625 1.875 13.7695 1.875 12.8125V7.5625Z" fill="white"/>
</svg>
