<svg width="16" height="16" viewBox="0 0 16 16" fill="none" xmlns="http://www.w3.org/2000/svg">
<path d="M4.5 1.625C4.5 1.13281 4.88281 0.75 5.375 0.75C5.86719 0.75 6.25 1.13281 6.25 1.625V2.5H9.75V1.625C9.75 1.13281 10.1328 0.75 10.625 0.75C11.1172 0.75 11.5 1.13281 11.5 1.625V2.5H12.8125C13.5508 2.5 14.125 3.10156 14.125 3.8125V5.125H1.875V3.8125C1.875 3.10156 2.47656 2.5 3.1875 2.5H4.5V1.625Z" fill="#ADB5BB"/>
<path opacity="0.5" d="M1.875 5.125H14.125V12.5625C14.125 13.3008 13.5508 13.875 12.8125 13.875H3.1875C2.47656 13.875 1.875 13.3008 1.875 12.5625V5.125ZM4.5 8.625V10.375C4.5 10.8672 4.88281 11.25 5.375 11.25H10.625C11.1172 11.25 11.5 10.8672 11.5 10.375V8.625C11.5 8.13281 11.1172 7.75 10.625 7.75H5.375C4.88281 7.75 4.5 8.13281 4.5 8.625Z" fill="#ADB5BB"/>
</svg>
