<svg width="16" height="16" viewBox="0 0 16 16" fill="none" xmlns="http://www.w3.org/2000/svg">
<path d="M11.9102 11.5C11.3086 10.4609 10.1602 9.75 8.875 9.75H7.125C5.83984 9.75 4.69141 10.4609 4.08984 11.5C5.04688 12.5664 6.44141 13.25 8 13.25C9.55859 13.25 10.9531 12.5664 11.9102 11.5ZM1 8C1 4.14453 4.14453 1 8 1C11.8555 1 15 4.14453 15 8C15 11.8555 11.8555 15 8 15C4.14453 15 1 11.8555 1 8ZM8 8.4375C9.09375 8.4375 9.96875 7.5625 9.96875 6.46875C9.96875 5.375 9.09375 4.5 8 4.5C6.90625 4.5 6.03125 5.375 6.03125 6.46875C6.03125 7.5625 6.90625 8.4375 8 8.4375Z" fill="white"/>
</svg>
