<svg width="16" height="16" viewBox="0 0 16 16" fill="none" xmlns="http://www.w3.org/2000/svg">
<path d="M8 8.1875C6.90625 8.1875 6.03125 7.3125 6.03125 6.21875C6.03125 5.125 6.90625 4.25 8 4.25C9.09375 4.25 9.96875 5.125 9.96875 6.21875C9.96875 7.3125 9.09375 8.1875 8 8.1875ZM8 13C6.44141 13 5.04688 12.3164 4.08984 11.25C4.69141 10.2109 5.83984 9.5 7.125 9.5H8.875C10.1875 9.5 11.3086 10.2109 11.9102 11.25C10.9531 12.3164 9.55859 13 8 13Z" fill="currentColor"/>
<path opacity="0.5" d="M1 7.75C1 3.89453 4.14453 0.75 8 0.75C11.8555 0.75 15 3.89453 15 7.75C15 11.6055 11.8555 14.75 8 14.75C4.14453 14.75 1 11.6055 1 7.75ZM4.08984 11.25C5.04688 12.3164 6.44141 13 8 13C9.55859 13 10.9531 12.3164 11.9102 11.25C11.3086 10.2109 10.1602 9.5 8.875 9.5H7.125C5.83984 9.5 4.69141 10.2109 4.08984 11.25ZM9.96875 6.21875C9.96875 5.125 9.09375 4.25 8 4.25C6.90625 4.25 6.03125 5.125 6.03125 6.21875C6.03125 7.3125 6.90625 8.1875 8 8.1875C9.09375 8.1875 9.96875 7.3125 9.96875 6.21875Z" fill="currentColor"/>
</svg>
