<svg width="58" height="17" viewBox="0 0 58 17" fill="none" xmlns="http://www.w3.org/2000/svg">
<path d="M28.771 11.7619C30.5692 11.7619 32.0271 10.2857 32.0271 8.47619C32.0271 6.66667 30.5692 5.19048 28.771 5.19048C26.9728 5.19048 25.5149 6.66667 25.5149 8.47619C25.5149 10.2857 26.9728 11.7619 28.771 11.7619ZM28.771 17C24.0083 17 20.1689 13.1905 20.1689 8.47619C20.1689 3.80952 24.0569 0 28.771 0C33.5337 0 37.3731 3.80952 37.3731 8.52381C37.4217 13.1905 33.5337 17 28.771 17Z" fill="#1EAAE2"/>
<path d="M8.60205 11.7619C10.4002 11.7619 11.8582 10.2857 11.8582 8.47619C11.8582 6.66667 10.4002 5.19048 8.60205 5.19048C6.80388 5.19048 5.3459 6.66667 5.3459 8.47619C5.3459 10.2857 6.80388 11.7619 8.60205 11.7619ZM8.60205 17C3.83933 17 0 13.1905 0 8.47619C0 3.80952 3.88793 0 8.60205 0C13.3648 0 17.2041 3.80952 17.2041 8.52381C17.2527 13.1905 13.3648 17 8.60205 17Z" fill="#6EC8C2"/>
<path d="M48.939 11.7619C50.7371 11.7619 52.1951 10.2857 52.1951 8.47619C52.1951 6.66667 50.7371 5.19048 48.939 5.19048C47.1408 5.19048 45.6828 6.66667 45.6828 8.47619C45.6828 10.2857 47.1408 11.7619 48.939 11.7619ZM48.939 17C44.1762 17 40.3369 13.1905 40.3369 8.47619C40.3369 3.80952 44.2248 0 48.939 0C53.7017 0 57.541 3.80952 57.541 8.52381C57.5896 13.1905 53.7017 17 48.939 17Z" fill="#0373B7"/>
</svg>
