<svg width="115" height="25" viewBox="0 0 115 25" fill="none" xmlns="http://www.w3.org/2000/svg">
<path d="M92.1758 17.3699C92.4701 17.37 92.7819 17.4051 93.1113 17.4754C93.4439 17.5426 93.7541 17.6672 94.042 17.8494C94.3331 18.0318 94.5723 18.2925 94.7578 18.6317C94.9433 18.9676 95.0361 19.4048 95.0361 19.9422V24.8367H93.6348V23.8289H93.5771C93.4844 24.0145 93.3447 24.1966 93.1592 24.3758C92.9736 24.5549 92.7354 24.7037 92.4443 24.8221C92.1532 24.9404 91.8047 24.9998 91.3984 24.9998C90.9313 24.9998 90.5084 24.9138 90.1309 24.741C89.7535 24.5651 89.4551 24.31 89.2344 23.9774C89.0168 23.6446 88.9072 23.2368 88.9072 22.7537C88.9072 22.3381 88.9877 21.996 89.1475 21.7274C89.3074 21.4588 89.5232 21.2454 89.7949 21.0887C90.0668 20.9319 90.3711 20.8132 90.707 20.7332C91.043 20.6532 91.3857 20.5932 91.7344 20.5516C92.1758 20.5004 92.5345 20.4586 92.8096 20.4266C93.0845 20.3914 93.2845 20.3354 93.4092 20.2586C93.5338 20.1819 93.5956 20.0571 93.5957 19.8846V19.8504C93.5957 19.4315 93.4777 19.1071 93.2412 18.8768C93.0077 18.6465 92.659 18.5312 92.1953 18.5311C91.7122 18.5311 91.3311 18.638 91.0527 18.8524C90.7777 19.0635 90.587 19.2984 90.4814 19.5574L89.1328 19.2508C89.2928 18.8029 89.5269 18.441 89.834 18.1658C90.1443 17.8876 90.5013 17.6861 90.9043 17.5614C91.3073 17.4335 91.7312 17.3699 92.1758 17.3699ZM111.124 17.3699C111.921 17.3699 112.548 17.542 113.006 17.8875C113.463 18.2298 113.765 18.6897 113.912 19.2655L112.612 19.4949C112.558 19.3287 112.471 19.1706 112.353 19.0203C112.237 18.8701 112.081 18.7471 111.883 18.6512C111.684 18.5552 111.436 18.5067 111.139 18.5067C110.732 18.5067 110.393 18.5978 110.121 18.7801C109.849 18.9593 109.713 19.1917 109.713 19.4764C109.713 19.7227 109.805 19.9208 109.987 20.0711C110.17 20.2214 110.464 20.3453 110.87 20.4412L112.041 20.7098C112.719 20.8666 113.225 21.1081 113.558 21.4344C113.89 21.7607 114.057 22.1846 114.057 22.7059C114.057 23.1473 113.929 23.5411 113.673 23.8866C113.42 24.2287 113.066 24.4971 112.612 24.6922C112.161 24.8873 111.638 24.9851 111.043 24.9852C110.218 24.9852 109.544 24.8096 109.022 24.4578C108.501 24.1028 108.181 23.5987 108.062 22.9461L109.449 22.7352C109.536 23.0965 109.714 23.37 109.982 23.5555C110.251 23.7377 110.601 23.8289 111.033 23.8289C111.503 23.8289 111.88 23.7311 112.161 23.536C112.442 23.3376 112.583 23.096 112.583 22.8114C112.583 22.5812 112.497 22.388 112.324 22.2313C112.155 22.0746 111.894 21.9558 111.542 21.8758L110.294 21.6024C109.606 21.4456 109.097 21.1957 108.768 20.8533C108.441 20.5111 108.278 20.0771 108.278 19.5526C108.278 19.1177 108.4 18.7372 108.644 18.411C108.887 18.0847 109.223 17.8306 109.651 17.6483C110.08 17.4628 110.571 17.37 111.124 17.3699ZM77.8535 24.8367H76.2793L75.3809 22.2362H71.541L70.6406 24.8367H69.0664L72.6035 15.0086H74.3164L77.8535 24.8367ZM81.0605 23.1385H81.1367L82.999 17.4657H84.5391L81.8662 24.8367H80.3311L77.6533 17.4657H79.1934L81.0605 23.1385ZM87.3232 24.8367H85.8877V17.4657H87.3232V24.8367ZM100.59 17.3699C101.092 17.37 101.532 17.4753 101.909 17.6864C102.287 17.8943 102.579 18.2045 102.787 18.617C102.995 19.0297 103.1 19.5404 103.1 20.1483V24.8367H101.664V20.3211C101.664 19.7869 101.525 19.3689 101.247 19.0682C100.969 18.7643 100.586 18.6121 100.1 18.6121C99.767 18.6122 99.471 18.684 99.2119 18.828C98.956 18.9719 98.7529 19.1834 98.6025 19.4617C98.4554 19.7368 98.3819 20.0696 98.3818 20.4598V24.8367H96.9473V17.4657H98.3242V18.6649H98.415C98.5846 18.2746 98.8505 17.9612 99.2119 17.7244C99.5766 17.4877 100.036 17.3699 100.59 17.3699ZM106.459 24.8367H105.023V17.4657H106.459V24.8367ZM93.6006 21.2274C93.5494 21.2785 93.4508 21.3271 93.3037 21.3719C93.1598 21.4135 92.995 21.4503 92.8096 21.4823C92.624 21.511 92.4426 21.5377 92.2666 21.5633C92.0907 21.5857 91.9435 21.6049 91.8252 21.6209C91.547 21.6561 91.2928 21.7155 91.0625 21.7987C90.8354 21.8818 90.6532 22.0023 90.5156 22.159C90.3813 22.3126 90.3135 22.5173 90.3135 22.7733C90.3135 23.1282 90.4449 23.3966 90.707 23.5789C90.9693 23.7581 91.3038 23.8484 91.71 23.8485C92.1066 23.8485 92.446 23.7698 92.7275 23.6131C93.0122 23.4564 93.2278 23.2514 93.375 22.9989C93.5254 22.7429 93.6006 22.4687 93.6006 22.1776V21.2274ZM71.9727 20.9881H74.9502L73.501 16.7938H73.4238L71.9727 20.9881ZM86.6123 14.6151C86.8618 14.6151 87.075 14.6995 87.251 14.869C87.4301 15.0353 87.5195 15.2377 87.5195 15.4744C87.5194 15.7078 87.43 15.9095 87.251 16.0789C87.075 16.2453 86.8618 16.328 86.6123 16.328C86.363 16.3279 86.1488 16.2451 85.9697 16.0789C85.7939 15.9095 85.7062 15.7078 85.7061 15.4744C85.7061 15.2377 85.7938 15.0353 85.9697 14.869C86.1488 14.6997 86.363 14.6151 86.6123 14.6151ZM105.748 14.6151C105.998 14.6151 106.211 14.6995 106.387 14.869C106.566 15.0353 106.655 15.2377 106.655 15.4744C106.655 15.7078 106.566 15.9095 106.387 16.0789C106.211 16.2453 105.998 16.328 105.748 16.328C105.499 16.3279 105.285 16.2451 105.105 16.0789C104.93 15.9095 104.841 15.7078 104.841 15.4744C104.841 15.2377 104.93 15.0353 105.105 14.869C105.285 14.6997 105.499 14.6151 105.748 14.6151Z" fill="#2C3B52"/>
<path d="M64.2767 14.8993C65.4544 14.3628 66.6658 15.5781 66.1293 16.7558C66.09 16.842 66.0333 16.9195 65.9633 16.9833L64.1254 18.6532C64.2574 18.9184 64.4183 19.2378 64.5844 19.5693L64.6615 19.4931C64.7717 19.3829 64.9507 19.3829 65.0609 19.4931C65.1708 19.6033 65.171 19.7824 65.0609 19.8925L64.9105 20.0419C64.8907 20.0617 64.8676 20.0761 64.8441 20.0888C64.9378 20.275 65.0307 20.4574 65.1176 20.6288L65.2592 20.4882C65.3694 20.3781 65.5484 20.378 65.6586 20.4882C65.7687 20.5984 65.7687 20.7774 65.6586 20.8876L65.3871 21.1581C65.485 21.3487 65.5631 21.5009 65.6127 21.5917L65.6508 21.6581C65.7359 21.8017 65.7392 21.9567 65.7162 22.0839C65.6933 22.2101 65.6404 22.3309 65.5834 22.4345C65.4692 22.6417 65.3083 22.8326 65.1937 22.9472C65.0835 23.0574 64.9045 23.0574 64.7943 22.9472L62.2269 20.3798L60.6615 21.8027C60.7513 22.0329 60.8711 22.3702 60.9623 22.705C61.0119 22.887 61.0543 23.0737 61.0795 23.2441C61.1036 23.4079 61.1159 23.5831 61.0863 23.7314C61.0284 24.0211 60.8318 24.2473 60.6517 24.4013C60.4671 24.5591 60.2623 24.6728 60.1234 24.7323C59.9876 24.7905 59.8302 24.7345 59.7621 24.6034L59.015 23.1698C58.7147 23.2536 58.3807 23.179 58.1459 22.9443L58.1156 22.912C57.8957 22.6694 57.8321 22.3336 57.9291 22.037L56.514 21.29C56.3849 21.2217 56.3287 21.0663 56.3851 20.9316C56.4428 20.7941 56.5543 20.5921 56.7094 20.4101C56.8606 20.2326 57.0839 20.039 57.3724 19.9843C57.5198 19.9564 57.6946 19.9703 57.8568 19.996C58.0255 20.0228 58.2098 20.0671 58.39 20.1181C58.7149 20.21 59.0426 20.3293 59.2709 20.4198L60.684 18.8368L58.0844 16.2372C57.9747 16.1271 57.9746 15.9489 58.0844 15.8388C58.1989 15.7242 58.3898 15.5624 58.597 15.4482C58.7006 15.3911 58.8214 15.3383 58.9476 15.3154C59.0749 15.2923 59.2297 15.2966 59.3734 15.3818L59.4408 15.4189C59.5455 15.476 59.7305 15.5721 59.9633 15.6913C59.9711 15.6809 59.9792 15.6705 59.9886 15.6611L60.2103 15.4394C60.3205 15.3294 60.4986 15.3295 60.6088 15.4394C60.719 15.5496 60.719 15.7286 60.6088 15.8388L60.4886 15.9579C60.6721 16.0508 60.8664 16.1492 61.0629 16.248C61.0734 16.1951 61.1 16.1444 61.141 16.1034L61.2064 16.038C61.3166 15.9278 61.4956 15.9278 61.6058 16.038C61.7159 16.1482 61.716 16.3273 61.6058 16.4374L61.5502 16.4911C61.8577 16.6451 62.1514 16.7928 62.3969 16.915L64.0443 15.0702C64.1009 15.0068 64.1693 14.9541 64.2445 14.915L64.2767 14.8993ZM59.4935 22.8652L60.1302 24.0878C60.1815 24.054 60.2343 24.0155 60.2845 23.9726C60.4248 23.8526 60.5108 23.7297 60.5326 23.621C60.5428 23.5702 60.5425 23.4728 60.5209 23.3261C60.5002 23.1858 60.4635 23.023 60.4174 22.8534C60.3563 22.6294 60.2788 22.4029 60.2103 22.2128L59.4935 22.8652ZM65.6156 16.5214C65.9365 15.8163 65.2108 15.0944 64.5111 15.413C64.494 15.4208 64.4787 15.4322 64.4662 15.4462L58.5326 22.0976C58.4175 22.2267 58.4231 22.4225 58.5453 22.5448C58.6685 22.668 58.8666 22.6728 58.9955 22.5556L65.5834 16.5663C65.5969 16.554 65.6079 16.5382 65.6156 16.5214ZM62.6449 19.9989L64.9779 22.3329C65.0184 22.2783 65.0573 22.22 65.0892 22.162C65.1299 22.0882 65.1525 22.0275 65.1605 21.9833C65.1648 21.9596 65.1642 21.9476 65.1635 21.9433C65.0091 21.6808 64.1906 20.0485 63.6918 19.0478L62.6449 19.9989ZM57.4779 20.539C57.3734 20.5587 57.2551 20.64 57.139 20.7763C57.0981 20.8243 57.0609 20.8746 57.0287 20.9238L58.2474 21.5673L58.8685 20.871C58.6805 20.8016 58.4573 20.7235 58.2367 20.6611C58.0685 20.6135 57.9069 20.5757 57.7679 20.5536C57.6226 20.5306 57.5272 20.5297 57.4779 20.539ZM59.0482 15.871C59.0041 15.8791 58.9433 15.9017 58.8695 15.9423C58.8115 15.9742 58.7532 16.0132 58.6986 16.0536L61.0599 18.415L62.0082 17.3515C61.01 16.854 59.3544 16.0249 59.0892 15.8691C59.0854 15.8683 59.073 15.8665 59.0482 15.871Z" fill="#2C3B52"/>
<path d="M97.5382 6.74794C98.5699 6.74794 99.4063 5.90103 99.4063 4.86289C99.4063 3.82474 98.5699 2.97783 97.5382 2.97783C96.5066 2.97783 95.6701 3.82474 95.6701 4.86289C95.6701 5.90103 96.5066 6.74794 97.5382 6.74794ZM97.5382 9.75309C94.8058 9.75309 92.6031 7.56752 92.6031 4.86289C92.6031 2.18557 94.8337 0 97.5382 0C100.271 0 102.473 2.18557 102.473 4.8902C102.501 7.56752 100.271 9.75309 97.5382 9.75309Z" fill="#1EAAE2"/>
<path d="M85.9674 6.74794C86.9991 6.74794 87.8355 5.90103 87.8355 4.86289C87.8355 3.82474 86.9991 2.97783 85.9674 2.97783C84.9358 2.97783 84.0993 3.82474 84.0993 4.86289C84.0993 5.90103 84.9358 6.74794 85.9674 6.74794ZM85.9674 9.75309C83.235 9.75309 81.0323 7.56752 81.0323 4.86289C81.0323 2.18557 83.2629 0 85.9674 0C88.6998 0 90.9025 2.18557 90.9025 4.8902C90.9304 7.56752 88.6998 9.75309 85.9674 9.75309Z" fill="#6EC8C2"/>
<path d="M109.109 6.74794C110.141 6.74794 110.977 5.90103 110.977 4.86289C110.977 3.82474 110.141 2.97783 109.109 2.97783C108.078 2.97783 107.241 3.82474 107.241 4.86289C107.241 5.90103 108.078 6.74794 109.109 6.74794ZM109.109 9.75309C106.377 9.75309 104.174 7.56752 104.174 4.86289C104.174 2.18557 106.405 0 109.109 0C111.842 0 114.044 2.18557 114.044 4.8902C114.072 7.56752 111.842 9.75309 109.109 9.75309Z" fill="#0373B7"/>
<path d="M8.20132 3.99045C8.20132 6.24966 6.59608 7.56516 3.85258 7.56516H2.77269V9.70998H0V0.472931H3.96932C6.62526 0.472931 8.20132 1.75983 8.20132 3.99045ZM5.37026 3.99045C5.37026 3.24691 4.81572 2.78934 3.94013 2.78934H2.77269V5.24874H3.91095C4.84491 5.24874 5.37026 4.76258 5.37026 3.99045Z" fill="#2C3B52"/>
<path d="M19.9048 5.0773C19.9048 7.79408 17.8034 9.88171 14.8264 9.88171C11.8495 9.88171 9.74805 7.79408 9.74805 5.0773C9.74805 2.36052 11.8203 0.272888 14.8264 0.272888C17.8034 0.272888 19.9048 2.36052 19.9048 5.0773ZM17.0738 5.0773C17.0738 3.8762 16.1398 2.81808 14.8264 2.81808C13.5131 2.81808 12.5791 3.8762 12.5791 5.0773C12.5791 6.2784 13.5131 7.33652 14.8264 7.33652C16.1398 7.33652 17.0738 6.2784 17.0738 5.0773Z" fill="#2C3B52"/>
<path d="M27.8435 9.70998L26.355 7.27918H26.2382H24.7497V9.70998H21.9771V0.472931H26.2382C28.7774 0.472931 30.3535 1.70263 30.3535 3.81886C30.3535 4.93417 29.8573 5.87789 28.9817 6.50704L30.9956 9.70998H27.8435ZM24.5746 4.84838H26.0339C26.7928 4.84838 27.3765 4.41941 27.3765 3.79026C27.3765 3.18971 26.822 2.78934 26.0339 2.78934H24.5746V4.84838Z" fill="#2C3B52"/>
<path d="M40.3936 2.84654H37.5918V9.70998H34.7899V2.84654H31.988V0.472931H40.3936V2.84654V2.84654Z" fill="#2C3B52"/>
<path d="M45.7931 9.91031C44.2462 9.91031 42.6994 9.36695 41.8238 8.85219L41.7362 8.795L43.0496 6.70737L43.1371 6.76456C44.0419 7.25072 45.0342 7.5653 45.7639 7.5653C46.3768 7.5653 46.7562 7.36512 46.7562 7.02194C46.7562 6.65017 46.1141 6.47859 45.3261 6.2784C43.896 5.93523 41.9697 5.44907 41.9697 3.21845C41.9697 1.50259 43.4874 0.272888 45.6472 0.272888C46.7854 0.272888 47.9237 0.530267 49.2079 1.10222L49.2954 1.13082L48.2739 3.24705L48.1863 3.18985C47.3691 2.78948 46.5811 2.5893 45.7639 2.5893C45.2094 2.5893 44.8299 2.78948 44.8299 3.13266C44.8299 3.50443 45.4428 3.64742 46.2309 3.819C47.661 4.16217 49.6165 4.61974 49.6165 6.87895C49.6748 8.7378 48.1572 9.91031 45.7931 9.91031Z" fill="#2C3B52"/>
<path d="M54.724 0.472931V9.70998H51.9513V0.472931H54.724Z" fill="#2C3B52"/>
<path d="M66.7488 5.07716C66.7488 7.87973 64.6474 9.70998 61.612 9.70998H57.6427V0.472931H61.612C64.6474 0.472931 66.7488 2.27458 66.7488 5.07716ZM63.8302 5.07716C63.8302 3.79026 62.867 2.90373 61.5536 2.90373H60.3862V7.30778H61.5536C62.867 7.27918 63.8302 6.36405 63.8302 5.07716Z" fill="#2C3B52"/>
<path d="M71.4479 2.76075V3.99045H75.3296V6.19247H71.4479V7.39357H75.9717V9.68139H68.646V0.472931H75.9717V2.76075H71.4479Z" fill="#2C3B52"/>
</svg>
