<svg width="115" height="25" viewBox="0 0 115 25" fill="none" xmlns="http://www.w3.org/2000/svg">
<path d="M92.1756 17.3701C92.4699 17.3701 92.7817 17.4052 93.1111 17.4756C93.4437 17.5427 93.754 17.6674 94.0418 17.8496C94.3329 18.032 94.5721 18.2927 94.7576 18.6318C94.9432 18.9677 95.0359 19.405 95.0359 19.9424V24.8369H93.6346V23.8291H93.577C93.4842 24.0147 93.3445 24.1968 93.159 24.376C92.9735 24.5551 92.7353 24.7039 92.4442 24.8223C92.1531 24.9406 91.8045 25 91.3983 25C90.9312 25 90.5082 24.914 90.1307 24.7412C89.7533 24.5653 89.4539 24.3102 89.2332 23.9775C89.0159 23.6449 88.907 23.2368 88.907 22.7539C88.9071 22.3383 88.9874 21.9962 89.1473 21.7275C89.3072 21.4589 89.5229 21.2456 89.7947 21.0889C90.0667 20.9321 90.3709 20.8134 90.7068 20.7334C91.0428 20.6534 91.3855 20.5933 91.7342 20.5518C92.1756 20.5006 92.5343 20.4587 92.8094 20.4268C93.0843 20.3916 93.2843 20.3355 93.409 20.2588C93.5336 20.182 93.5954 20.0573 93.5955 19.8848V19.8506C93.5955 19.4318 93.4776 19.1072 93.241 18.877C93.0075 18.6466 92.6581 18.5312 92.1942 18.5312C91.7113 18.5313 91.3308 18.6383 91.0526 18.8525C90.7775 19.0636 90.5869 19.2986 90.4813 19.5576L89.1326 19.251C89.2926 18.8031 89.5267 18.4412 89.8338 18.166C90.1441 17.8878 90.5011 17.6863 90.9041 17.5615C91.3071 17.4336 91.7311 17.3701 92.1756 17.3701ZM111.124 17.3701C111.92 17.3701 112.547 17.5424 113.005 17.8877C113.462 18.23 113.765 18.6898 113.912 19.2656L112.612 19.4961C112.558 19.3297 112.471 19.1709 112.352 19.0205C112.237 18.8703 112.081 18.7473 111.883 18.6514C111.684 18.5554 111.436 18.5068 111.138 18.5068C110.732 18.5068 110.393 18.598 110.121 18.7803C109.849 18.9594 109.713 19.1918 109.713 19.4766C109.713 19.7229 109.805 19.9209 109.987 20.0713C110.169 20.2216 110.464 20.3455 110.87 20.4414L112.041 20.71C112.719 20.8667 113.225 21.1083 113.557 21.4346C113.89 21.7608 114.056 22.1848 114.056 22.7061C114.056 23.1475 113.928 23.5413 113.673 23.8867C113.42 24.229 113.066 24.4982 112.612 24.6934C112.161 24.8885 111.638 24.9853 111.043 24.9854C110.217 24.9854 109.544 24.8098 109.022 24.458C108.501 24.1029 108.181 23.5989 108.062 22.9463L109.449 22.7354C109.535 23.0967 109.714 23.3702 109.982 23.5557C110.251 23.7379 110.601 23.8291 111.033 23.8291C111.503 23.8291 111.879 23.7313 112.161 23.5361C112.442 23.3378 112.583 23.0961 112.583 22.8115C112.583 22.5814 112.497 22.3881 112.324 22.2314C112.155 22.0747 111.894 21.956 111.542 21.876L110.294 21.6025C109.606 21.4458 109.097 21.1958 108.767 20.8535C108.441 20.5113 108.278 20.0781 108.278 19.5537C108.278 19.1186 108.4 18.7375 108.643 18.4111C108.887 18.0849 109.223 17.8308 109.651 17.6484C110.08 17.463 110.571 17.3701 111.124 17.3701ZM77.8533 24.8379H76.2791L75.3807 22.2363H71.5408L70.6404 24.8379H69.0662L72.6033 15.0098H74.3162L77.8533 24.8379ZM81.0604 23.1387H81.1365L82.9988 17.4658H84.5389L81.866 24.8369H80.3309L77.6531 17.4658H79.1932L81.0604 23.1387ZM87.3231 24.8369H85.8875V17.4658H87.3231V24.8369ZM100.59 17.3701C101.092 17.3702 101.532 17.4754 101.909 17.6865C102.286 17.8944 102.579 18.2047 102.787 18.6172C102.995 19.0299 103.099 19.5406 103.099 20.1484V24.8369H101.664V20.3213C101.664 19.787 101.525 19.3691 101.247 19.0684C100.969 18.7644 100.586 18.6123 100.099 18.6123C99.7668 18.6123 99.4708 18.6852 99.2117 18.8291C98.956 18.973 98.7527 19.1838 98.6024 19.4619C98.4552 19.737 98.3817 20.0698 98.3817 20.46V24.8369H96.9471V17.4658H98.324V18.665H98.4149C98.5844 18.2748 98.8503 17.9613 99.2117 17.7246C99.5764 17.4879 100.036 17.3701 100.59 17.3701ZM106.458 24.8369H105.023V17.4658H106.458V24.8369ZM93.6004 21.2285C93.5491 21.2795 93.4502 21.3274 93.3035 21.3721C93.1597 21.4136 92.9947 21.4504 92.8094 21.4824C92.6238 21.5112 92.4424 21.5389 92.2664 21.5645C92.0906 21.5868 91.9433 21.6061 91.825 21.6221C91.5469 21.6572 91.2925 21.7157 91.0623 21.7988C90.8353 21.882 90.653 22.0025 90.5154 22.1592C90.3811 22.3127 90.3133 22.5175 90.3133 22.7734C90.3133 23.1285 90.4445 23.3977 90.7068 23.5801C90.9691 23.7592 91.3036 23.8486 91.7098 23.8486C92.1065 23.8486 92.4458 23.77 92.7274 23.6133C93.012 23.4566 93.2277 23.2517 93.3748 22.999C93.5251 22.7432 93.6003 22.4697 93.6004 22.1787V21.2285ZM71.9725 20.9893H74.95L73.5008 16.7949H73.4236L71.9725 20.9893ZM86.6121 14.6152C86.8616 14.6152 87.0749 14.6997 87.2508 14.8691C87.43 15.0355 87.5193 15.2379 87.5193 15.4746C87.5193 15.708 87.4299 15.9096 87.2508 16.0791C87.0748 16.2455 86.8617 16.3281 86.6121 16.3281C86.3628 16.3281 86.1486 16.2453 85.9695 16.0791C85.7937 15.9096 85.705 15.708 85.7049 15.4746C85.7049 15.2379 85.7936 15.0355 85.9695 14.8691C86.1486 14.6999 86.3628 14.6153 86.6121 14.6152ZM105.748 14.6152C105.997 14.6152 106.211 14.6996 106.387 14.8691C106.566 15.0355 106.655 15.2379 106.655 15.4746C106.655 15.708 106.566 15.9096 106.387 16.0791C106.211 16.2455 105.997 16.3281 105.748 16.3281C105.499 16.3281 105.284 16.2453 105.105 16.0791C104.929 15.9096 104.841 15.708 104.841 15.4746C104.841 15.2379 104.929 15.0355 105.105 14.8691C105.284 14.6999 105.499 14.6153 105.748 14.6152Z" fill="white"/>
<path d="M64.2768 14.8999C65.4545 14.3634 66.6649 15.5787 66.1284 16.7563C66.089 16.8425 66.0324 16.9201 65.9623 16.9839L64.1254 18.6538C64.2573 18.9187 64.4176 19.2379 64.5834 19.5688L64.6606 19.4927C64.7707 19.3826 64.9498 19.3828 65.06 19.4927C65.1702 19.6029 65.1702 19.7819 65.06 19.8921L64.9106 20.0415C64.8908 20.0613 64.8676 20.0757 64.8442 20.0884C64.938 20.2749 65.0306 20.4577 65.1176 20.6294L65.2592 20.4888C65.3694 20.3786 65.5474 20.3786 65.6577 20.4888C65.7679 20.599 65.7678 20.777 65.6577 20.8872L65.3862 21.1577C65.4842 21.3486 65.5631 21.5003 65.6127 21.5913L65.6498 21.6587C65.735 21.8024 65.7393 21.9572 65.7162 22.0845C65.6933 22.2107 65.6405 22.3315 65.5834 22.4351C65.4692 22.6423 65.3074 22.8332 65.1928 22.9478C65.0827 23.0575 64.9045 23.0575 64.7944 22.9478L62.227 20.3804L60.6606 21.8042C60.7503 22.0345 60.8712 22.3712 60.9623 22.7056C61.0119 22.8874 61.0544 23.0734 61.0795 23.2437C61.1037 23.4077 61.1161 23.5835 61.0864 23.7319C61.0284 24.0217 60.831 24.2478 60.6508 24.4019C60.4663 24.5595 60.2622 24.6734 60.1235 24.7329C59.9877 24.7911 59.8293 24.7351 59.7612 24.604L59.0151 23.1694C58.7147 23.2533 58.3808 23.1795 58.1459 22.9448L58.1157 22.9126C57.8959 22.6703 57.8326 22.3349 57.9291 22.0386L56.5141 21.2905C56.385 21.2223 56.3289 21.0668 56.3852 20.9321C56.4428 20.7947 56.5544 20.5927 56.7094 20.4106C56.8607 20.233 57.0837 20.0385 57.3725 19.9839C57.5199 19.956 57.6946 19.9699 57.8569 19.9956C58.0256 20.0224 58.2098 20.0676 58.3901 20.1187C58.7146 20.2105 59.0418 20.3289 59.27 20.4194L60.683 18.8364L58.0844 16.2378C57.9743 16.1276 57.9742 15.9486 58.0844 15.8384C58.199 15.7238 58.3899 15.5629 58.5971 15.4487C58.7007 15.3917 58.8214 15.3388 58.9477 15.3159C59.0749 15.2929 59.2298 15.2962 59.3735 15.3813L59.4409 15.4194C59.5456 15.4766 59.7308 15.5719 59.9633 15.6909C59.9711 15.6806 59.9793 15.6701 59.9887 15.6606L60.2094 15.4399C60.3196 15.3297 60.4986 15.3297 60.6088 15.4399C60.7189 15.5501 60.7189 15.7282 60.6088 15.8384L60.4887 15.9575C60.6722 16.0504 60.8664 16.1488 61.0629 16.2476C61.0735 16.195 61.0994 16.1448 61.1401 16.104L61.2065 16.0376C61.3167 15.9277 61.4958 15.9275 61.6059 16.0376C61.716 16.1477 61.7158 16.3268 61.6059 16.437L61.5502 16.4917C61.8581 16.6459 62.1523 16.7933 62.3979 16.9155L64.0444 15.0708C64.1009 15.0075 64.1685 14.9546 64.2436 14.9155L64.2768 14.8999ZM59.4936 22.8657L60.1303 24.0884C60.1816 24.0546 60.2343 24.0151 60.2846 23.9722C60.4246 23.8524 60.5108 23.7301 60.5327 23.6216C60.5428 23.5708 60.5425 23.4732 60.5209 23.3267C60.5003 23.1864 60.4636 23.0235 60.4174 22.854C60.3564 22.6301 60.2788 22.4035 60.2104 22.2134L59.4936 22.8657ZM65.6147 16.522C65.936 15.8166 65.2101 15.0947 64.5102 15.4136C64.4935 15.4213 64.4785 15.4321 64.4662 15.4458L58.5317 22.0972C58.4166 22.2263 58.423 22.4231 58.5453 22.5454C58.6686 22.6684 58.8667 22.6733 58.9955 22.5562L65.5825 16.5659C65.5959 16.5537 65.607 16.5387 65.6147 16.522ZM62.645 20.0005L64.978 22.3335C65.0184 22.2789 65.0574 22.2206 65.0893 22.1626C65.1299 22.0888 65.1525 22.028 65.1606 21.9839C65.1651 21.9591 65.1633 21.9467 65.1625 21.9429C65.0078 21.6795 64.1904 20.0477 63.6918 19.0474L62.645 20.0005ZM57.478 20.5386C57.3736 20.5583 57.2551 20.6399 57.1391 20.7759C57.0982 20.8239 57.061 20.8751 57.0287 20.9243L58.2465 21.5679L58.8676 20.8706C58.6799 20.8013 58.4569 20.7239 58.2368 20.6616C58.0685 20.614 57.907 20.5753 57.768 20.5532C57.623 20.5302 57.5273 20.5294 57.478 20.5386ZM59.0483 15.8716C59.0041 15.8796 58.9434 15.9022 58.8696 15.9429C58.8116 15.9748 58.7533 16.0137 58.6987 16.0542L61.06 18.4146L62.0082 17.3521C61.0101 16.8546 59.3544 16.0245 59.0893 15.8687C59.0855 15.8679 59.073 15.8671 59.0483 15.8716Z" fill="white"/>
<path d="M97.5383 6.74794C98.5699 6.74794 99.4064 5.90103 99.4064 4.86288C99.4064 3.82474 98.5699 2.97783 97.5383 2.97783C96.5067 2.97783 95.6702 3.82474 95.6702 4.86288C95.6702 5.90103 96.5067 6.74794 97.5383 6.74794ZM97.5383 9.75309C94.8059 9.75309 92.6032 7.56752 92.6032 4.86288C92.6032 2.18557 94.8338 0 97.5383 0C100.271 0 102.473 2.18557 102.473 4.8902C102.501 7.56752 100.271 9.75309 97.5383 9.75309Z" fill="#1EAAE2"/>
<path d="M85.9674 6.74794C86.9991 6.74794 87.8355 5.90103 87.8355 4.86288C87.8355 3.82474 86.9991 2.97783 85.9674 2.97783C84.9358 2.97783 84.0993 3.82474 84.0993 4.86288C84.0993 5.90103 84.9358 6.74794 85.9674 6.74794ZM85.9674 9.75309C83.235 9.75309 81.0323 7.56752 81.0323 4.86288C81.0323 2.18557 83.2629 0 85.9674 0C88.6998 0 90.9025 2.18557 90.9025 4.8902C90.9304 7.56752 88.6998 9.75309 85.9674 9.75309Z" fill="#6EC8C2"/>
<path d="M109.109 6.74794C110.141 6.74794 110.977 5.90103 110.977 4.86288C110.977 3.82474 110.141 2.97783 109.109 2.97783C108.078 2.97783 107.241 3.82474 107.241 4.86288C107.241 5.90103 108.078 6.74794 109.109 6.74794ZM109.109 9.75309C106.377 9.75309 104.174 7.56752 104.174 4.86288C104.174 2.18557 106.405 0 109.109 0C111.842 0 114.044 2.18557 114.044 4.8902C114.072 7.56752 111.842 9.75309 109.109 9.75309Z" fill="#0373B7"/>
<path d="M8.20132 3.99042C8.20132 6.24963 6.59608 7.56513 3.85258 7.56513H2.77269V9.70995H0V0.4729H3.96932C6.62526 0.4729 8.20132 1.7598 8.20132 3.99042ZM5.37026 3.99042C5.37026 3.24688 4.81572 2.78931 3.94013 2.78931H2.77269V5.24871H3.91095C4.84491 5.24871 5.37026 4.76255 5.37026 3.99042Z" fill="white"/>
<path d="M19.9048 5.07736C19.9048 7.79414 17.8034 9.88177 14.8264 9.88177C11.8495 9.88177 9.74805 7.79414 9.74805 5.07736C9.74805 2.36058 11.8203 0.272949 14.8264 0.272949C17.8034 0.272949 19.9048 2.36058 19.9048 5.07736ZM17.0738 5.07736C17.0738 3.87626 16.1398 2.81814 14.8264 2.81814C13.5131 2.81814 12.5791 3.87626 12.5791 5.07736C12.5791 6.27846 13.5131 7.33658 14.8264 7.33658C16.1398 7.33658 17.0738 6.27846 17.0738 5.07736Z" fill="white"/>
<path d="M27.8435 9.70995L26.355 7.27915H26.2382H24.7497V9.70995H21.9771V0.4729H26.2382C28.7774 0.4729 30.3535 1.7026 30.3535 3.81883C30.3535 4.93414 29.8573 5.87786 28.9817 6.50701L30.9956 9.70995H27.8435ZM24.5746 4.84835H26.0339C26.7928 4.84835 27.3765 4.41938 27.3765 3.79023C27.3765 3.18968 26.822 2.78931 26.0339 2.78931H24.5746V4.84835Z" fill="white"/>
<path d="M40.3936 2.84651H37.5918V9.70995H34.7899V2.84651H31.988V0.4729H40.3936V2.84651V2.84651Z" fill="white"/>
<path d="M45.7931 9.91037C44.2462 9.91037 42.6994 9.36701 41.8238 8.85225L41.7362 8.79506L43.0496 6.70743L43.1371 6.76462C44.0419 7.25078 45.0342 7.56536 45.7639 7.56536C46.3768 7.56536 46.7562 7.36517 46.7562 7.022C46.7562 6.65023 46.1141 6.47865 45.3261 6.27846C43.896 5.93529 41.9697 5.44913 41.9697 3.21851C41.9697 1.50265 43.4874 0.272949 45.6471 0.272949C46.7854 0.272949 47.9237 0.530328 49.2079 1.10228L49.2954 1.13088L48.2739 3.24711L48.1863 3.18991C47.3691 2.78955 46.5811 2.58936 45.7639 2.58936C45.2094 2.58936 44.8299 2.78955 44.8299 3.13272C44.8299 3.50449 45.4428 3.64748 46.2309 3.81906C47.661 4.16223 49.6165 4.6198 49.6165 6.87901C49.6748 8.73786 48.1572 9.91037 45.7931 9.91037Z" fill="white"/>
<path d="M54.724 0.4729V9.70995H51.9513V0.4729H54.724Z" fill="white"/>
<path d="M66.7488 5.07713C66.7488 7.8797 64.6474 9.70995 61.6121 9.70995H57.6428V0.4729H61.6121C64.6474 0.4729 66.7488 2.27455 66.7488 5.07713ZM63.8302 5.07713C63.8302 3.79023 62.8671 2.9037 61.5537 2.9037H60.3863V7.30775H61.5537C62.8671 7.27915 63.8302 6.36402 63.8302 5.07713Z" fill="white"/>
<path d="M71.4478 2.76072V3.99042H75.3296V6.19244H71.4478V7.39354H75.9717V9.68136H68.6459V0.4729H75.9717V2.76072H71.4478Z" fill="white"/>
</svg>
